<?xml version="1.0" encoding="iso-8859-1"?>
<!-- Generator: Adobe Illustrator 19.0.0, SVG Export Plug-In . SVG Version: 6.00 Build 0)  -->
<svg version="1.1" id="Capa_1" xmlns="http://www.w3.org/2000/svg" xmlns:xlink="http://www.w3.org/1999/xlink" x="0px" y="0px"
	 viewBox="0 0 511.969 511.969" style="enable-background:new 0 0 511.969 511.969;" xml:space="preserve">
<path style="fill:#EAC6BB;" d="M388.219,414.772l-0.241,0.641c0,0-23.999,60.559-131.992,60.559
	c-107.994,0-131.992-60.559-131.992-60.559l-0.243-0.641c11.359-4.078,22.718-8.875,32.24-14.952l13.679-7.367
	c1.438,2.086,3.921,3.523,6.64,3.523c4.398,0,8-3.602,8-7.999c0-4.399-3.601-8-8-8l3.68-15.999v-23.037
	c25.279,24.076,53.598,39.036,75.995,39.036c22.476,0,50.716-14.882,75.995-39.036v23.037l2.719,16.155
	c-3.68,0.727,7.358,8.476,7.358,12.319l13.921,7.367C365.503,405.897,376.862,410.694,388.219,414.772z M320.302,403.976
	c0-4.398-3.602-8-7.999-8c-4.399,0-8,3.602-8,8c0,4.397,3.601,7.999,8,7.999C316.701,411.975,320.302,408.374,320.302,403.976z
	 M296.303,419.975c0-4.398-3.601-8-7.999-8s-8,3.602-8,8c0,4.397,3.602,7.999,8,7.999S296.303,424.373,296.303,419.975z
	 M264.306,427.974c0-4.397-3.603-7.999-8-7.999c-4.398,0-8,3.602-8,7.999s3.602,7.999,8,7.999
	C260.704,435.973,264.306,432.372,264.306,427.974z M232.308,419.975c0-4.398-3.601-8-8-8s-8,3.602-8,8c0,4.397,3.601,7.999,8,7.999
	S232.308,424.373,232.308,419.975z M208.309,403.976c0-4.398-3.602-8-8-8s-8,3.602-8,8c0,4.397,3.602,7.999,8,7.999
	S208.309,408.374,208.309,403.976z"/>
<g style="opacity:0.2;">
	<path d="M179.991,340.941v7.999c25.279,24.076,53.598,39.037,75.995,39.037c22.476,0,50.716-14.883,75.995-39.037v-7.999
		c-25.279,24.154-53.52,39.036-75.995,39.036C233.589,379.977,205.27,365.017,179.991,340.941z"/>
</g>
<g style="opacity:0.5;">
	<path style="fill:#FFFFFF;" d="M179.991,348.94v15.038l-3.68,15.999c4.398,0-5.203,14.562-6.64,12.476l-13.679,7.367
		c-9.522,6.077-20.881,10.874-32.24,14.952c-14.717,5.28-29.357,9.358-39.755,13.202c-31.999,11.999-47.998,23.998-47.998,55.997
		c0,23.998,0,23.998,0,23.998h15.999c0-2.32,0-4.961,0-7.999c0-31.999,15.999-43.998,47.998-55.997
		c10.398-3.844,25.038-7.922,39.755-13.202c11.359-4.078,22.717-8.874,32.24-14.952c0,0,23.999-18.093,23.999-35.842
		c0-7.687,0-13.358,0-17.437C190.584,358.392,185.217,353.917,179.991,348.94z"/>
</g>
<g style="opacity:0.2;">
	<path d="M427.733,427.974c-10.397-3.844-25.038-7.922-39.755-13.202c-11.359-4.078-22.718-8.875-32.24-14.952l-13.68-7.367
		c-1.437,2.086-11.038-12.476-6.64-12.476l-3.68-15.999v-14.819c-5.226,4.977-10.593,9.468-15.999,13.608c0,4.063,0,9.664,0,17.21
		c0,17.749,23.999,35.842,23.999,35.842c9.522,6.078,20.881,10.874,32.239,14.952c14.719,5.28,29.358,9.358,39.756,13.202
		c31.998,11.999,47.997,23.998,47.997,55.997c0,3.038,0,5.679,0,7.999h15.999c0,0,0,0,0-23.998
		C475.73,451.972,459.731,439.973,427.733,427.974z"/>
</g>
<path style="fill:#965353;" d="M255.986,4.001c-33.115,0-59.996,15.999-59.996,35.677v24.069h119.993v-24.07
	C315.983,20,289.187,4.001,255.986,4.001z"/>
<g style="opacity:0.2;">
	<path d="M255.986,4.001c-33.115,0-59.996,15.999-59.996,35.677v24.069h119.993v-24.07C315.983,20,289.187,4.001,255.986,4.001z"/>
</g>
<g style="opacity:0.2;">
	<path d="M255.986,27.999c-9.679,0-19.038,0.797-27.999,2.32c-11.374,1.922-22.014,5.148-31.998,9.328c0,0.008,0,0.023,0,0.03
		v24.069h119.993V39.677c0-0.055-0.017-0.109-0.017-0.163c-9.96-4.156-20.639-7.289-31.982-9.195
		C275.023,28.796,265.665,27.999,255.986,27.999z"/>
</g>
<path style="fill:#965353;" d="M399.977,183.99v11.999c-68.878-28.476-107.993-66.793-107.993-66.793l-1.758-2.641
	c41.356-27.6,65.753-51.278,65.753-51.278l0.961-0.96C384.22,100.714,399.977,139.031,399.977,183.99z"/>
<path style="fill:#EAC6BB;" d="M395.735,194.208v17.78c-2.718,50.153-30.639,97.432-63.754,128.953
	c-25.279,24.154-53.52,39.036-75.995,39.036c-22.397,0-50.716-14.96-75.995-39.036c-31.358-29.843-58.075-73.84-63.114-120.953
	v-17.063c72.074-15.116,130.148-47.497,173.349-76.37l1.758,2.641C291.984,129.196,326.857,165.733,395.735,194.208z"/>
<g style="opacity:0.2;">
	<path d="M379.736,186.84v25.147c-2.719,50.153-30.639,97.432-63.753,128.953c-22.359,21.366-47.014,35.427-67.965,38.403
		c2.718,0.383,5.39,0.633,7.968,0.633c22.476,0,50.716-14.882,75.995-39.036c33.115-31.521,61.036-78.8,63.754-128.953v-17.78
		L379.736,186.84z"/>
</g>
<g style="opacity:0.5;">
	<path style="fill:#FFFFFF;" d="M195.99,340.941c-31.358-29.843-58.075-73.84-63.113-120.953v-20.609l-16,3.547v17.063
		c5.039,47.113,31.756,91.11,63.114,120.953c25.279,24.076,53.598,39.036,75.995,39.036c2.602,0,5.288-0.242,8.031-0.633
		C243.096,376.368,218.363,362.244,195.99,340.941z"/>
</g>
<path style="fill:#9B5C5C;" d="M283.984,38.319c29.038,4.883,53.84,17.522,72.956,35.998l-0.961,0.96
	c0,0-24.396,23.679-65.753,51.278c-43.201,28.873-104.955,62.074-177.029,77.19c-0.406,0.087-0.804,0.164-1.203,0.242v-19.998
	c0-76.395,45.521-133.75,115.993-145.671c8.96-1.523,18.32-2.32,27.999-2.32S275.023,36.796,283.984,38.319z"/>
<g style="opacity:0.2;">
	<path d="M356.94,74.317c-19.116-18.476-43.918-31.115-72.956-35.998c-8.961-1.523-18.319-2.32-27.998-2.32
		c-2.711,0-5.336,0.203-8,0.328c6.835,0.32,13.546,0.898,19.999,1.992c29.038,4.883,53.841,17.522,72.957,35.998
		c27.279,26.396,43.036,64.714,43.036,109.673v4.929c5.164,2.398,10.444,4.773,15.999,7.07V183.99
		C399.977,139.031,384.22,100.714,356.94,74.317z"/>
</g>
<g style="opacity:0.2;">
	<path style="fill:#FFFFFF;" d="M127.994,183.99c0-76.395,45.52-133.75,115.993-145.671c6.453-1.094,13.163-1.672,19.998-1.992
		c-2.663-0.125-5.288-0.328-7.999-0.328c-9.679,0-19.038,0.797-27.999,2.32C157.515,50.24,111.994,107.595,111.994,183.99v19.998
		c0.398-0.078,0.797-0.155,1.203-0.242c5.024-1.055,9.875-2.391,14.797-3.608L127.994,183.99L127.994,183.99z"/>
</g>
<g>
	<path style="fill:#FFCE54;" d="M336.301,379.977c4.397,0,7.999,3.601,7.999,8c0,4.397-3.602,7.999-7.999,7.999
		c-4.398,0-8-3.602-8-7.999c0-3.844,2.719-7.117,6.398-7.844C335.183,380.055,335.739,379.977,336.301,379.977z"/>
	<path style="fill:#FFCE54;" d="M312.303,395.976c4.397,0,7.999,3.602,7.999,8c0,4.397-3.602,7.999-7.999,7.999
		c-4.399,0-8-3.602-8-7.999C304.303,399.578,307.904,395.976,312.303,395.976z"/>
	<path style="fill:#FFCE54;" d="M288.304,411.975c4.398,0,7.999,3.602,7.999,8c0,4.397-3.601,7.999-7.999,7.999s-8-3.602-8-7.999
		C280.304,415.577,283.906,411.975,288.304,411.975z"/>
	<path style="fill:#FFCE54;" d="M256.306,419.975c4.397,0,8,3.602,8,7.999s-3.603,7.999-8,7.999c-4.398,0-8-3.602-8-7.999
		S251.908,419.975,256.306,419.975z"/>
	<path style="fill:#FFCE54;" d="M224.308,411.975c4.398,0,8,3.602,8,8c0,4.397-3.601,7.999-8,7.999s-8-3.602-8-7.999
		C216.309,415.577,219.91,411.975,224.308,411.975z"/>
	<path style="fill:#FFCE54;" d="M200.31,395.976c4.398,0,8,3.602,8,8c0,4.397-3.602,7.999-8,7.999s-8-3.602-8-7.999
		C192.31,399.578,195.912,395.976,200.31,395.976z"/>
	<path style="fill:#FFCE54;" d="M176.311,379.977c4.398,0,8,3.601,8,8c0,4.397-3.601,7.999-8,7.999c-2.719,0-5.203-1.438-6.64-3.523
		c-0.883-1.273-1.359-2.796-1.359-4.476C168.312,383.578,171.913,379.977,176.311,379.977z"/>
</g>
<g style="opacity:0.5;">
	<path style="fill:#FFFFFF;" d="M177.671,392.453c-0.883-1.273-1.359-2.796-1.359-4.476c0-2.914,1.656-5.367,4-6.766
		c-1.195-0.711-2.516-1.234-4-1.234c-4.398,0-7.999,3.601-7.999,8c0,1.68,0.476,3.202,1.359,4.476
		c1.438,2.086,3.921,3.523,6.64,3.523c1.453,0,2.742-0.499,3.914-1.179C179.217,394.187,178.327,393.398,177.671,392.453z"/>
</g>
<g style="opacity:0.5;">
	<path style="fill:#FFFFFF;" d="M201.669,408.452c-0.883-1.273-1.359-2.797-1.359-4.476c0-2.915,1.656-5.367,4-6.766
		c-1.195-0.711-2.516-1.234-4-1.234c-4.398,0-8,3.602-8,8c0,1.679,0.477,3.202,1.359,4.476c1.438,2.086,3.922,3.523,6.64,3.523
		c1.453,0,2.742-0.5,3.914-1.18C203.215,410.186,202.325,409.397,201.669,408.452z"/>
</g>
<g style="opacity:0.5;">
	<path style="fill:#FFFFFF;" d="M225.667,424.451c-0.882-1.273-1.359-2.797-1.359-4.476c0-2.914,1.656-5.368,4-6.766
		c-1.195-0.711-2.516-1.234-4-1.234c-4.398,0-8,3.602-8,8c0,1.679,0.476,3.202,1.359,4.476c1.437,2.086,3.921,3.523,6.64,3.523
		c1.453,0,2.742-0.5,3.914-1.18C227.215,426.185,226.324,425.397,225.667,424.451z"/>
</g>
<g style="opacity:0.5;">
	<path style="fill:#FFFFFF;" d="M257.666,432.451c-0.883-1.274-1.359-2.797-1.359-4.477c0-2.914,1.656-5.367,4-6.766
		c-1.195-0.711-2.516-1.233-4-1.233c-4.398,0-8,3.602-8,7.999c0,1.68,0.477,3.202,1.359,4.477c1.438,2.086,3.922,3.522,6.641,3.522
		c1.452,0,2.742-0.5,3.913-1.18C259.213,434.185,258.322,433.396,257.666,432.451z"/>
</g>
<g style="opacity:0.5;">
	<path style="fill:#FFFFFF;" d="M289.664,424.451c-0.883-1.273-1.359-2.797-1.359-4.476c0-2.914,1.656-5.368,3.999-6.766
		c-1.194-0.711-2.515-1.234-3.999-1.234c-4.398,0-8,3.602-8,8c0,1.679,0.478,3.202,1.359,4.476c1.438,2.086,3.922,3.523,6.641,3.523
		c1.453,0,2.742-0.5,3.914-1.18C291.21,426.185,290.319,425.397,289.664,424.451z"/>
</g>
<g style="opacity:0.5;">
	<path style="fill:#FFFFFF;" d="M313.663,408.452c-0.884-1.273-1.359-2.797-1.359-4.476c0-2.915,1.655-5.367,4-6.766
		c-1.196-0.711-2.517-1.234-4-1.234c-4.399,0-8,3.602-8,8c0,1.679,0.477,3.202,1.359,4.476c1.438,2.086,3.921,3.523,6.641,3.523
		c1.452,0,2.741-0.5,3.913-1.18C315.209,410.186,314.319,409.397,313.663,408.452z"/>
</g>
<g style="opacity:0.5;">
	<path style="fill:#FFFFFF;" d="M337.661,392.453c-0.883-1.273-1.359-2.796-1.359-4.476c0-2.914,1.656-5.367,4-6.766
		c-1.195-0.711-2.516-1.234-4-1.234c-4.398,0-8,3.601-8,8c0,1.68,0.478,3.202,1.359,4.476c1.438,2.086,3.922,3.523,6.641,3.523
		c1.452,0,2.742-0.499,3.913-1.179C339.208,394.187,338.317,393.398,337.661,392.453z"/>
</g>
<g>
	<path style="fill:#3A3847;" d="M255.986,383.977c-22.921,0-52.364-15.007-78.753-40.139
		c-35.646-33.927-59.691-80.065-64.332-123.43c-0.234-2.195,1.351-4.163,3.555-4.397c2.046-0.188,4.164,1.352,4.398,3.554
		c4.445,41.529,27.584,85.823,61.895,118.477c24.944,23.757,52.317,37.936,73.238,37.936c20.998,0,48.38-14.179,73.229-37.927
		c36.764-34.999,60.138-82.198,62.528-126.281c0.125-2.203,1.827-3.945,4.21-3.773c2.203,0.117,3.898,2,3.773,4.211
		c-2.492,46.06-26.788,95.274-64.988,131.632C308.045,369.345,279.336,383.977,255.986,383.977z"/>
	<path style="fill:#3A3847;" d="M475.972,511.969H35.999c-2.21,0-4-1.789-4-4v-23.998c0-34.271,17.78-47.435,50.591-59.739
		c5.125-1.898,11.234-3.835,17.874-5.945c6.914-2.202,14.413-4.585,21.936-7.28c13.453-4.828,23.444-9.453,31.444-14.562
		c1.851-1.172,4.328-0.641,5.523,1.227c1.188,1.859,0.64,4.328-1.227,5.522c-8.507,5.43-19.006,10.305-33.037,15.343
		c-7.617,2.735-15.21,5.149-22.217,7.375c-6.508,2.063-12.5,3.969-17.5,5.813c-30.748,11.53-45.388,22.295-45.388,52.247v19.998
		h431.974v-19.998c0-29.952-14.641-40.717-45.404-52.255c-4.984-1.836-10.976-3.742-17.483-5.805
		c-7.007-2.226-14.601-4.64-22.217-7.375c-14.03-5.038-24.53-9.913-33.037-15.343c-1.867-1.194-2.414-3.663-1.227-5.522
		c1.194-1.867,3.679-2.398,5.523-1.227c7.999,5.108,17.99,9.733,31.442,14.562c7.523,2.695,15.022,5.078,21.937,7.28
		c6.641,2.11,12.75,4.047,17.858,5.938c32.826,12.313,50.606,25.476,50.606,59.747v23.998
		C479.972,510.18,478.183,511.969,475.972,511.969z"/>
	<path style="fill:#3A3847;" d="M179.991,367.978c-2.211,0-4-1.789-4-4v-23.037c0-2.211,1.789-4,4-4s4,1.789,4,4v23.037
		C183.99,366.189,182.202,367.978,179.991,367.978z"/>
	<path style="fill:#3A3847;" d="M331.981,367.978c-2.211,0-4-1.789-4-4v-23.037c0-2.211,1.789-4,4-4s4,1.789,4,4v23.037
		C335.981,366.189,334.192,367.978,331.981,367.978z"/>
	<path style="fill:#3A3847;" d="M399.977,187.989c-2.211,0-4-1.789-4-3.999c0-42.779-14.851-80.707-41.818-106.799
		c-18.857-18.226-43.355-30.311-70.839-34.928c-17.687-3.016-36.99-3.016-54.66,0C160.219,53.841,115.995,109.47,115.995,183.99
		c0,2.21-1.789,3.999-4,3.999c-2.21,0-4-1.789-4-3.999c0-78.628,46.841-137.352,119.329-149.616c18.546-3.156,38.771-3.156,57.333,0
		c29.077,4.891,55.036,17.71,75.065,37.068c28.538,27.615,44.256,67.581,44.256,112.548
		C403.977,186.2,402.188,187.989,399.977,187.989z"/>
	<path style="fill:#3A3847;" d="M111.987,207.988c-1.867,0-3.547-1.32-3.914-3.227c-0.43-2.172,0.984-4.273,3.148-4.694l1.148-0.234
		c73.495-15.414,136.078-50.161,175.63-76.605c40.537-27.045,64.957-50.582,65.191-50.816c1.602-1.547,4.133-1.5,5.656,0.086
		c1.538,1.577,1.5,4.108-0.078,5.647c-0.25,0.242-25.14,24.257-66.324,51.739c-40.139,26.826-103.681,62.098-178.427,77.776
		l-1.25,0.25C112.502,207.964,112.245,207.988,111.987,207.988z"/>
	<path style="fill:#3A3847;" d="M399.977,199.988c-0.508,0-1.031-0.093-1.531-0.305c-68.801-28.443-107.642-66.042-109.259-67.628
		c-1.578-1.547-1.609-4.078-0.063-5.656c1.547-1.586,4.094-1.594,5.655-0.063c0.391,0.383,39.451,38.146,106.729,65.957
		c2.039,0.844,3.007,3.18,2.164,5.227C403.039,199.058,401.548,199.988,399.977,199.988z"/>
	<path style="fill:#3A3847;" d="M255.986,479.971c-109.454,0-134.687-60.513-135.71-63.083c-0.813-2.054,0.188-4.366,2.234-5.187
		c2.04-0.82,4.375,0.18,5.195,2.227c0.234,0.578,24.624,58.043,128.281,58.043c104.072,0,128.047-57.449,128.273-58.035
		c0.819-2.055,3.148-3.07,5.194-2.242c2.056,0.813,3.056,3.141,2.243,5.194C390.674,419.459,365.44,479.971,255.986,479.971z"/>
	<path style="fill:#3A3847;" d="M399.977,199.988c-2.211,0-4-1.788-4-3.999V183.99c0-2.212,1.789-4,4-4s4,1.788,4,4v11.999
		C403.977,198.2,402.188,199.988,399.977,199.988z"/>
	<path style="fill:#3A3847;" d="M111.995,207.988c-2.21,0-4-1.789-4-4V183.99c0-2.212,1.79-4,4-4c2.211,0,4,1.788,4,4v19.998
		C115.995,206.199,114.206,207.988,111.995,207.988z"/>
	<path style="fill:#3A3847;" d="M316.381,43.677c-2.211,0-3.999-1.789-3.999-4C312.382,22.507,286.735,8,256.385,8
		s-55.997,14.507-55.997,31.677c0,2.211-1.789,4-4,4c-2.21,0-4-1.789-4-4C192.388,17.429,220.495,0,256.384,0
		s63.996,17.429,63.996,39.677C320.381,41.888,318.591,43.677,316.381,43.677z"/>
	<path style="fill:#3A3847;" d="M227.987,42.443c-2.21,0-4-1.671-4-3.882V27.999c0-2.211,1.79-3.999,4-3.999
		c2.211,0,4,1.788,4,3.999v10.32C231.987,40.53,230.198,42.443,227.987,42.443z"/>
	<path style="fill:#3A3847;" d="M283.984,42.443c-2.211,0-4-1.671-4-3.882V27.999c0-2.211,1.789-3.999,4-3.999s4,1.788,4,3.999
		v10.32C287.984,40.53,286.195,42.443,283.984,42.443z"/>
	<path style="fill:#3A3847;" d="M255.986,39.998c-2.211,0-4-1.788-4-3.999v-8c0-2.211,1.789-3.999,4-3.999s4,1.788,4,3.999v8
		C259.986,38.21,258.197,39.998,255.986,39.998z"/>
	<path style="fill:#3A3847;" d="M200.31,415.975c-6.617,0-12-5.383-12-11.999c0-6.617,5.382-11.999,12-11.999
		c6.617,0,11.999,5.382,11.999,11.999C212.309,410.592,206.926,415.975,200.31,415.975z M200.31,399.976c-2.203,0-4,1.796-4,4
		c0,2.202,1.797,3.999,4,3.999s4-1.797,4-3.999C204.31,401.772,202.513,399.976,200.31,399.976z"/>
	<path style="fill:#3A3847;" d="M176.311,399.976c-3.891,0-7.703-2.016-9.937-5.249c-1.343-1.954-2.062-4.29-2.062-6.75
		c0-6.617,5.382-12,11.999-12s11.999,5.383,11.999,12C188.31,394.593,182.928,399.976,176.311,399.976z M176.311,383.977
		c-2.203,0-4,1.797-4,4c0,0.835,0.219,1.578,0.648,2.195c0.758,1.101,2.07,1.805,3.352,1.805c2.203,0,4-1.798,4-4
		C180.311,385.774,178.514,383.977,176.311,383.977z"/>
	<path style="fill:#3A3847;" d="M224.308,431.974c-6.617,0-12-5.383-12-11.999c0-6.618,5.383-12,12-12
		c6.616,0,11.999,5.382,11.999,12C236.307,426.591,230.924,431.974,224.308,431.974z M224.308,415.975c-2.203,0-4,1.797-4,4
		c0,2.202,1.796,3.999,4,3.999s4-1.797,4-3.999C228.308,417.772,226.511,415.975,224.308,415.975z"/>
	<path style="fill:#3A3847;" d="M256.306,439.973c-6.617,0-11.999-5.382-11.999-11.999s5.382-11.999,11.999-11.999
		c6.617,0,11.999,5.382,11.999,11.999S262.924,439.973,256.306,439.973z M256.306,423.974c-2.203,0-4,1.797-4,4s1.797,4,4,4
		c2.202,0,4-1.797,4-4S258.508,423.974,256.306,423.974z"/>
	<path style="fill:#3A3847;" d="M288.304,431.974c-6.616,0-12-5.383-12-11.999c0-6.618,5.384-12,12-12s11.999,5.382,11.999,12
		C300.303,426.591,294.921,431.974,288.304,431.974z M288.304,415.975c-2.203,0-4,1.797-4,4c0,2.202,1.797,3.999,4,3.999
		s3.999-1.797,3.999-3.999C292.303,417.772,290.507,415.975,288.304,415.975z"/>
	<path style="fill:#3A3847;" d="M312.303,415.975c-6.617,0-12-5.383-12-11.999c0-6.617,5.383-11.999,12-11.999
		c6.616,0,11.999,5.382,11.999,11.999C324.302,410.592,318.92,415.975,312.303,415.975z M312.303,399.976c-2.204,0-4,1.796-4,4
		c0,2.202,1.796,3.999,4,3.999c2.202,0,4-1.797,4-3.999C316.303,401.772,314.506,399.976,312.303,399.976z"/>
	<path style="fill:#3A3847;" d="M336.301,399.976c-6.617,0-11.999-5.383-11.999-11.999c0-5.719,4.047-10.664,9.624-11.766
		c7.641-1.241,14.374,4.359,14.374,11.766C348.3,394.593,342.919,399.976,336.301,399.976z M336.301,383.977
		c-0.336,0-0.672,0.055-0.969,0.101c-1.695,0.345-3.031,1.993-3.031,3.899c0,2.202,1.798,4,4,4s4-1.798,4-4
		C340.301,385.774,338.504,383.977,336.301,383.977z"/>
</g>
<path style="fill:#AC92EC;" d="M475.972,483.971c0,23.998,0,23.998,0,23.998H35.999c0,0,0,0,0-23.998
	c0-31.999,15.999-43.998,47.998-55.997c10.397-3.844,25.038-7.922,39.755-13.202l0.243,0.641c0,0,23.998,60.559,131.992,60.559
	c107.993,0,131.992-60.559,131.992-60.559l0.241-0.641c14.719,5.28,29.358,9.358,39.756,13.202
	C459.973,439.973,475.972,451.972,475.972,483.971z"/>
<g style="opacity:0.4;">
	<path style="fill:#FFFFFF;" d="M99.996,443.973c9.328-3.452,22.1-7.141,35.256-11.663c-8.336-9.563-11.257-16.897-11.257-16.897
		l-0.243-0.641c-14.717,5.28-29.357,9.358-39.755,13.202c-31.999,11.999-47.998,23.998-47.998,55.997c0,23.998,0,23.998,0,23.998
		h15.999c0-2.32,0-4.961,0-7.999C51.998,467.971,67.997,455.972,99.996,443.973z"/>
</g>
<g style="opacity:0.3;">
	<path d="M411.734,443.973c-9.327-3.452-22.1-7.141-35.256-11.663c8.336-9.563,11.258-16.897,11.258-16.897l0.242-0.641
		c14.717,5.28,29.357,9.358,39.755,13.202c31.998,11.999,47.997,23.998,47.997,55.997c0,23.998,0,23.998,0,23.998h-15.999
		c0-2.32,0-4.961,0-7.999C459.731,467.971,443.732,455.972,411.734,443.973z"/>
</g>
<g>
</g>
<g>
</g>
<g>
</g>
<g>
</g>
<g>
</g>
<g>
</g>
<g>
</g>
<g>
</g>
<g>
</g>
<g>
</g>
<g>
</g>
<g>
</g>
<g>
</g>
<g>
</g>
<g>
</g>
</svg>
